<svg xmlns="http://www.w3.org/2000/svg" width="30" height="30" viewBox="0 0 22.701 13.001"><path d="M21.944 2.031h-2.883a.757.757 0 00-.757.757v.6h-1.271l-2.141-2.157a4.2 4.2 0 00-5.948 0L7.173 3.005H.757A.757.757 0 000 3.762v8.482a.757.757 0 00.757.757h12.909a.757.757 0 00.757-.757V9.369h1.143a3.027 3.027 0 002.27 1.059h.439v.603a.757.757 0 00.757.757h2.913a.757.757 0 00.755-.757V2.785a.757.757 0 00-.756-.754zm-14.475 2.5h5.448v1.2h-1.968a1.816 1.816 0 00-1.513.84H1.513v-2.04zm5.448 7H1.513V8.044h7.7a1.816 1.816 0 001.733 1.294h1.967zm4.956-2.618a1.513 1.513 0 01-1.279-.7.757.757 0 00-.643-.355h-5.009a.31.31 0 110-.613h5a.757.757 0 000-1.513H14.43V3.777a.757.757 0 00-.757-.757h-4.35l.7-.7a2.754 2.754 0 013.783 0l2.361 2.361a.757.757 0 00.537.219h1.589v4.018zm3.314 1.362h-1.37V3.542h1.37z" fill="#d8d8d8"/></svg>