<svg xmlns="http://www.w3.org/2000/svg" width="17" height="14.164"><path d="M16.29 0H5.657a.708.708 0 00-.708.708v3.533H2.832a.706.706 0 00-.589.315l-2.124 3.2A.708.708 0 000 8.149v3.189a.708.708 0 00.708.708h.039a2.468 2.468 0 004.887 0h4.318a2.468 2.468 0 004.887 0h1.451a.708.708 0 00.708-.708V.71A.708.708 0 0016.29 0zM1.416 8.36l1.809-2.693h1.734v4.287c-.028-.028-.059-.047-.088-.072a2.82 2.82 0 00-.215-.181l-.15-.1a2.017 2.017 0 00-.258-.134c-.1-.041-.1-.052-.16-.075a2.3 2.3 0 00-.295-.093c-.049-.013-.1-.028-.147-.039a2.362 2.362 0 00-.47-.049 2.326 2.326 0 00-.468.049.641.641 0 00-.15.039 2.258 2.258 0 00-.292.093 1.657 1.657 0 00-.165.078 2.171 2.171 0 00-.24.132c-.054.034-.106.07-.16.109a2.479 2.479 0 00-.2.165c-.062.057-.067.052-.1.083zm1.77 4.393a1.065 1.065 0 01-1.062-1.062 1.313 1.313 0 01.021-.214 1.062 1.062 0 012.083 0 1.189 1.189 0 01.021.217 1.065 1.065 0 01-1.059 1.057zm9.211 0a1.065 1.065 0 111.034-1.292 1.189 1.189 0 01.023.217 1.065 1.065 0 01-1.057 1.073zm2.238-2.127c-.023-.049-.054-.1-.083-.145s-.039-.078-.062-.114a2.887 2.887 0 00-.2-.258.432.432 0 01-.031-.041 2.488 2.488 0 00-.279-.258l-.085-.065a2.041 2.041 0 00-.233-.158l-.119-.065a1.9 1.9 0 00-.231-.112 1.361 1.361 0 00-.132-.049 2.3 2.3 0 00-.258-.072l-.124-.026a2.223 2.223 0 00-.8 0l-.121.026a2.344 2.344 0 00-.258.072.433.433 0 00-.129.049 2.558 2.558 0 00-.24.114l-.111.059a2.4 2.4 0 00-.258.173l-.065.047a2.559 2.559 0 00-.517.6l-.044.078c-.031.057-.067.111-.093.168H6.376V1.416h9.208v2.127h-4.96a.708.708 0 000 1.416h4.959v5.665z" fill="#d8d8d8"/></svg>