<svg xmlns="http://www.w3.org/2000/svg" width="49" height="49" viewBox="0 0 49 49">
  <g id="Grupo_225" data-name="Grupo 225" transform="translate(-1373 -908.84)">
    <g id="Elipse_131" data-name="Elipse 131" transform="translate(1373 908.84)" fill="#fff" stroke="#d8d8d8" stroke-width="1">
      <circle cx="24.5" cy="24.5" r="24.5" stroke="none"/>
      <circle cx="24.5" cy="24.5" r="24" fill="none"/>
    </g>
    <path id="noun_Heart_2102871_1_" data-name="noun_Heart_2102871 (1)" d="M17.679,6A4.631,4.631,0,0,0,14.25,7.554,4.631,4.631,0,0,0,10.821,6,5.045,5.045,0,0,0,6,11.233c0,4.212,7.478,10.817,7.8,11.1a.688.688,0,0,0,.9.008c.319-.27,7.805-6.664,7.805-11.1A5.045,5.045,0,0,0,17.679,6ZM14.257,20.9c-2.271-2.079-6.882-6.877-6.882-9.663a3.673,3.673,0,0,1,3.446-3.858,3.361,3.361,0,0,1,2.843,1.679.687.687,0,0,0,1.172,0,3.362,3.362,0,0,1,2.843-1.679,3.673,3.673,0,0,1,3.446,3.858C21.125,14.179,16.527,18.876,14.257,20.9Z" transform="translate(1383 918.84)" fill="red"/>
  </g>
</svg>
